<svg width="50" height="50" viewBox="0 0 50 50" fill="none" xmlns="http://www.w3.org/2000/svg">
<g clip-path="url(#clip0_5945_294)">
<rect width="50" height="50" rx="16" fill="white"/>
<path d="M34 0H16C7.16344 0 0 7.16344 0 16V34C0 42.8366 7.16344 50 16 50H34C42.8366 50 50 42.8366 50 34V16C50 7.16344 42.8366 0 34 0Z" fill="url(#paint0_linear_5945_294)"/>
<g clip-path="url(#clip1_5945_294)">
<path d="M50 0H0V50H50V0Z" fill="white"/>
<path d="M50 0H0V50H50V0Z" fill="url(#paint1_linear_5945_294)"/>
<path d="M38.5447 19.9309C38.5447 12.4185 32.451 6.32457 24.9389 6.32457C17.4268 6.32457 11.3332 12.4185 11.3332 19.9309C11.3332 27.4432 17.4268 33.5372 24.9389 33.5372C32.451 33.5372 38.5447 27.4432 38.5447 19.9309ZM24.9389 22.3474C23.6256 22.3474 22.5224 21.2967 22.5224 19.9309C22.5224 18.6175 23.5731 17.5143 24.9389 17.5143C26.2522 17.5143 27.3554 18.565 27.3554 19.9309C27.3554 21.2442 26.2522 22.3474 24.9389 22.3474Z" fill="url(#paint2_linear_5945_294)"/>
<path d="M24.9408 6.32422C23.9427 6.32422 22.9971 6.4293 22.1041 6.6394C25.6763 8.47813 28.0927 12.208 28.0927 16.5158C28.0927 18.4596 27.5674 20.2982 26.7269 21.8743L21.4737 33.064L20.0553 36.1109C19.7401 36.7939 19.5826 37.5293 19.5826 38.3174C19.5826 41.3118 21.999 43.6758 24.9933 43.6758C26.937 43.6758 28.6706 42.6251 29.6161 41.0491L36.9181 26.6023L37.5485 25.3415V25.289C38.2839 23.6604 38.6516 21.8217 38.6516 19.878C38.5465 12.4182 32.4528 6.32422 24.9408 6.32422Z" fill="url(#paint3_linear_5945_294)"/>
<g clip-path="url(#clip2_5945_294)">
<path d="M50 0H0V50H50V0Z" fill="white"/>
<path d="M50 0H0V50H50V0Z" fill="url(#paint4_linear_5945_294)"/>
<path d="M50 0H0V50H50V0Z" fill="url(#paint5_linear_5945_294)"/>
<path d="M23.7701 10.6851C24.328 10.6729 24.8874 10.6301 25.4437 10.653C27.3267 10.7294 29.0729 11.2705 30.6448 12.3144C33.169 13.9918 34.7119 16.331 35.2224 19.3198C35.5564 21.2769 35.3362 23.1912 34.5354 25.0107C34.0753 26.0554 33.5236 27.0596 33.0093 28.0797C31.4778 31.1189 29.9509 34.1604 28.4081 37.1936C27.7829 38.4224 26.7589 39.1224 25.3895 39.2806C23.4683 39.5022 21.6992 38.2902 21.194 36.4286C20.9174 35.4099 21.0924 34.4516 21.5402 33.5086C23.2528 29.9023 24.9378 26.2839 26.6573 22.6815C27.0615 21.834 27.4589 20.9873 27.6118 20.0603C28.2384 16.2722 27.0172 13.21 23.9513 10.8892C23.8909 10.8441 23.8282 10.802 23.7663 10.7585C23.7678 10.7333 23.7686 10.7088 23.7701 10.6851Z" fill="white"/>
<path d="M26.969 19.9089C26.1483 18.6129 24.7636 18.5953 23.9619 19.0378C23.038 19.549 22.5879 20.6418 22.9112 21.6505C23.0984 22.2344 23.4705 22.673 24.0185 22.952C24.5573 23.2263 25.1235 23.2607 25.7287 23.0781C24.493 25.697 23.2726 28.2845 22.0484 30.8797C21.0167 30.5703 20.0622 30.1316 19.1918 29.5226C16.7754 27.8314 15.2768 25.5388 14.8053 22.6226C13.9418 17.2832 17.3249 12.2143 22.5703 10.9434C22.6575 10.922 22.7759 10.9365 22.8523 10.9809C25.0952 12.2892 26.4884 14.2088 26.9882 16.7627C27.1914 17.8028 27.1785 18.8437 26.969 19.9089Z" fill="white"/>
</g>
</g>
<path d="M-4.1001 28.341L-12 19.3885L23.5707 -12L31.4706 -3.04745L-4.1001 28.341Z" fill="#EA2828"/>
<path d="M5.44478 13.7524L6.21024 14.5472L4.22309 16.4609L3.45762 15.666L5.44478 13.7524ZM7.45383 12.326L6.45861 12.9116L4.25091 10.0349L7.12789 7.26428L7.91707 8.08376L5.87364 10.0516L6.84103 11.3096C6.87064 11.2042 6.93316 11.0627 7.0286 10.8849C7.12178 10.7048 7.25395 10.5323 7.42512 10.3675C7.67366 10.1281 7.93132 9.95456 8.1981 9.84678C8.46488 9.739 8.73623 9.69461 9.01213 9.71362C9.29038 9.73038 9.56741 9.81157 9.84324 9.9572C10.1191 10.1028 10.3868 10.3105 10.6465 10.5801C10.8655 10.8075 11.0392 11.0583 11.1676 11.3324C11.2937 11.6041 11.3631 11.8897 11.3759 12.1893C11.3864 12.4864 11.3278 12.7846 11.2002 13.0838C11.0725 13.383 10.861 13.6748 10.5655 13.9593C10.3451 14.1716 10.1002 14.3443 9.8306 14.4773C9.56338 14.6081 9.28562 14.688 8.99729 14.7171C8.71132 14.744 8.43103 14.7134 8.15642 14.6253C7.88191 14.5327 7.62827 14.3702 7.39552 14.1379L8.40141 13.1692C8.55548 13.301 8.7138 13.3904 8.87637 13.4372C9.03903 13.4794 9.19904 13.4789 9.3564 13.4358C9.51376 13.3928 9.66161 13.3046 9.79995 13.1714C9.92891 13.0472 10.0154 12.9165 10.0594 12.7791C10.1035 12.6418 10.1118 12.5027 10.0846 12.3618C10.055 12.2185 9.99671 12.0758 9.9096 11.9337C9.82258 11.787 9.71245 11.6445 9.57923 11.5062C9.44601 11.3679 9.30879 11.2582 9.16758 11.1773C9.02637 11.0964 8.88225 11.0476 8.73522 11.031C8.58819 11.0144 8.44047 11.0347 8.29206 11.0917C8.14599 11.1465 8.00378 11.2405 7.86544 11.3738C7.67787 11.5544 7.56072 11.7237 7.514 11.8817C7.46963 12.0374 7.44957 12.1855 7.45383 12.326ZM9.14599 7.74087L8.88519 7.47005C8.69777 7.27544 8.5695 7.05777 8.50036 6.81704C8.43123 6.57631 8.43243 6.32884 8.50399 6.07465C8.57554 5.82045 8.7309 5.5782 8.97006 5.34788C9.21626 5.11079 9.46771 4.96128 9.72442 4.89935C9.98347 4.83517 10.2308 4.84328 10.4664 4.92369C10.7044 5.00184 10.9171 5.13823 11.1045 5.33284L11.3653 5.60365C11.5482 5.79358 11.6742 6.0089 11.7433 6.24963C11.8148 6.48811 11.8148 6.73444 11.7432 6.98863C11.6717 7.24283 11.5151 7.48621 11.2736 7.71879C11.0298 7.95362 10.7783 8.10313 10.5193 8.16732C10.2626 8.22925 10.0152 8.22113 9.77727 8.14298C9.53931 8.06483 9.32889 7.93079 9.14599 7.74087ZM9.55695 6.82313L9.81775 7.09395C9.89678 7.17601 9.98767 7.23988 10.0904 7.28556C10.1932 7.32663 10.3 7.33901 10.4109 7.32268C10.5218 7.30174 10.6253 7.24499 10.7214 7.15241C10.8222 7.05531 10.8828 6.95401 10.9033 6.84849C10.9214 6.74063 10.9107 6.63568 10.8712 6.53364C10.8294 6.42925 10.769 6.33603 10.69 6.25396L10.4292 5.98315C10.3456 5.89639 10.2525 5.83248 10.1496 5.7914C10.0469 5.74573 9.94125 5.73223 9.83269 5.7509C9.72423 5.76497 9.61958 5.82056 9.51876 5.91765C9.42497 6.00797 9.36783 6.10819 9.34733 6.21831C9.32458 6.32608 9.33292 6.43329 9.37236 6.53994C9.41187 6.64198 9.4734 6.73637 9.55695 6.82313ZM14.3679 8.264L14.1071 7.99318C13.9219 7.80091 13.7948 7.58441 13.7256 7.34368C13.6588 7.1007 13.6612 6.8521 13.7328 6.59791C13.8067 6.34146 13.9644 6.09694 14.2059 5.86437C14.4497 5.62953 14.7 5.48115 14.9567 5.41922C15.2134 5.3573 15.4607 5.36541 15.6987 5.44356C15.9367 5.52172 16.1482 5.65693 16.3334 5.84919L16.5942 6.12001C16.7793 6.31228 16.9065 6.52878 16.9756 6.76951C17.0471 7.00798 17.0471 7.25431 16.9755 7.50851C16.904 7.7627 16.7474 8.00609 16.5059 8.23866C16.2621 8.4735 16.0106 8.62301 15.7516 8.68719C15.4925 8.75138 15.2428 8.74552 15.0025 8.66963C14.7646 8.59147 14.553 8.45626 14.3679 8.264ZM14.7823 7.34287L15.0431 7.61369C15.1244 7.6981 15.22 7.75975 15.3297 7.79866C15.4395 7.83756 15.5487 7.84767 15.6572 7.829C15.7681 7.80807 15.8681 7.7547 15.9572 7.66889C16.0698 7.56051 16.1362 7.45356 16.1566 7.34804C16.177 7.24253 16.1628 7.14096 16.114 7.04335C16.0676 6.94348 16.0037 6.85134 15.9224 6.76693L15.6616 6.49612C15.5803 6.41171 15.4883 6.34896 15.3854 6.30789C15.2804 6.26447 15.1735 6.2521 15.065 6.27077C14.9565 6.28484 14.853 6.3393 14.7546 6.43413C14.6561 6.52897 14.5966 6.63145 14.5761 6.74157C14.5557 6.84708 14.5652 6.95316 14.6046 7.05981C14.6418 7.16411 14.701 7.25846 14.7823 7.34287ZM12.4538 3.54529L13.8076 9.95591L13.0646 10.1698L11.7108 3.75921L12.4538 3.54529Z" fill="white"/>
</g>
<defs>
<linearGradient id="paint0_linear_5945_294" x1="23.8636" y1="51.2397" x2="23.8636" y2="-1.65289" gradientUnits="userSpaceOnUse">
<stop offset="0.0613277" stop-color="#345A93"/>
<stop offset="0.645377" stop-color="#4778BB"/>
</linearGradient>
<linearGradient id="paint1_linear_5945_294" x1="-3.24742" y1="56.5205" x2="73.0669" y2="-32.3454" gradientUnits="userSpaceOnUse">
<stop stop-color="#BCE9FF"/>
<stop offset="0.471854" stop-color="white"/>
<stop offset="1" stop-color="#29FF65"/>
</linearGradient>
<linearGradient id="paint2_linear_5945_294" x1="29.0002" y1="23.4703" x2="10.9947" y2="7.81207" gradientUnits="userSpaceOnUse">
<stop stop-color="#30548B"/>
<stop offset="0.1859" stop-color="#30548B"/>
<stop offset="0.4106" stop-color="#44788E"/>
<stop offset="0.7897" stop-color="#6FC387"/>
<stop offset="1" stop-color="#6FC387"/>
</linearGradient>
<linearGradient id="paint3_linear_5945_294" x1="29.0026" y1="36.2954" x2="29.0026" y2="14.9571" gradientUnits="userSpaceOnUse">
<stop stop-color="#4A96D1"/>
<stop offset="1" stop-color="#6FC387"/>
</linearGradient>
<linearGradient id="paint4_linear_5945_294" x1="-3.24742" y1="56.5205" x2="73.0669" y2="-32.3454" gradientUnits="userSpaceOnUse">
<stop stop-color="#BCE9FF"/>
<stop offset="0.471854" stop-color="white"/>
<stop offset="1" stop-color="#29FF65"/>
</linearGradient>
<linearGradient id="paint5_linear_5945_294" x1="-0.683593" y1="50.6836" x2="50" y2="0.756835" gradientUnits="userSpaceOnUse">
<stop stop-color="#005B90"/>
<stop offset="1" stop-color="#01AF72"/>
</linearGradient>
<clipPath id="clip0_5945_294">
<rect width="50" height="50" rx="16" fill="white"/>
</clipPath>
<clipPath id="clip1_5945_294">
<rect width="50" height="50" fill="white"/>
</clipPath>
<clipPath id="clip2_5945_294">
<rect width="50" height="50" fill="white"/>
</clipPath>
</defs>
</svg>
