<svg width="50" height="50" viewBox="0 0 50 50" fill="none" xmlns="http://www.w3.org/2000/svg">
<rect width="50" height="50" rx="16" fill="url(#paint0_linear)"/>
<g clip-path="url(#clip0)">
<path d="M34.2083 15.7917C31.7166 13.3 28.4666 12 25 12C21.5333 12 18.2833 13.3 15.7917 15.7917C10.7 20.8833 10.7 29.1167 15.7917 34.2083C18.2833 36.7 21.5333 38 25 38C28.4666 38 31.7166 36.7 34.2083 34.2083C39.3 29.1167 39.3 20.8833 34.2083 15.7917ZM34.6416 29.9833L31.2833 26.625C31.3916 26.0833 31.5 25.5417 31.5 25C31.5 24.4583 31.3916 23.9167 31.2833 23.375L34.6416 20.0167C36.2666 23.1583 36.2666 26.8417 34.6416 29.9833ZM15.3583 20.0167L18.7166 23.375C18.6083 23.9167 18.5 24.4583 18.5 25C18.5 25.5417 18.6083 26.0833 18.7166 26.625L15.3583 29.9833C13.7333 26.8417 13.7333 23.1583 15.3583 20.0167ZM21.9666 28.0333C21.1 27.275 20.6666 26.1917 20.6666 25C20.6666 23.8083 21.1 22.725 21.9666 21.9667C22.725 21.1 23.8083 20.6667 25 20.6667C26.1916 20.6667 27.275 21.1 28.0333 21.9667C28.9 22.725 29.3333 23.8083 29.3333 25C29.3333 26.1917 28.9 27.275 28.0333 28.0333C26.4083 29.6583 23.5916 29.6583 21.9666 28.0333ZM29.9833 15.3583L26.625 18.7167C26.0833 18.6083 25.5416 18.5 25 18.5C24.4583 18.5 23.9166 18.6083 23.2666 18.7167L20.0167 15.3583C21.5333 14.6 23.2666 14.1667 25 14.1667C26.7333 14.1667 28.4667 14.6 29.9833 15.3583ZM20.0167 34.6417L23.375 31.2833C23.9166 31.3917 24.4583 31.5 25.1083 31.5C25.7583 31.5 26.1916 31.3917 26.8416 31.2833L30.2 34.6417C28.6833 35.4 26.95 35.8333 25.2166 35.8333C23.4833 35.8333 21.5333 35.4 20.0167 34.6417Z" fill="white"/>
</g>
<defs>
<linearGradient id="paint0_linear" x1="7.95454" y1="46.5909" x2="46.5909" y2="3.97727" gradientUnits="userSpaceOnUse">
<stop stop-color="#FC5BC4"/>
<stop offset="1" stop-color="#A644FF"/>
</linearGradient>
<clipPath id="clip0">
<rect width="26" height="26" fill="white" transform="translate(12 12)"/>
</clipPath>
</defs>
</svg>
