<svg width="50" height="50" viewBox="0 0 50 50" fill="none" xmlns="http://www.w3.org/2000/svg">
<g clip-path="url(#clip0)">
<rect width="50" height="50" rx="16" fill="white"/>
<rect width="50" height="50" rx="16" fill="url(#paint0_linear)"/>
<g clip-path="url(#clip1)">
<path d="M14.4875 36.2003C14.4875 36.2003 12.4888 31.624 17.9973 23.591C23.5059 15.5579 28.6976 15.5093 28.6976 15.5093C28.6976 15.5093 31.9637 15.9231 34.133 14.3408C34.133 14.3408 32.9143 17.2619 33.2556 19.2093C33.8893 22.8363 27.2839 30.4555 24.4077 33.1575C22.1409 35.2997 17.8023 36.8332 14.4875 36.2003Z" fill="#FFE771"/>
<path d="M14.3169 34.7154C14.3169 34.7154 15.0238 34.5936 15.1456 33.2061C15.3406 31.1127 15.9256 28.9949 17.0225 27.0962C18.1193 25.1975 19.8742 22.4954 22.921 19.7447C24.8466 17.9921 27.1865 16.848 29.7214 16.4585C31.3545 16.1664 32.5244 15.8743 33.0119 15.6552C33.67 15.3875 34.4256 14.219 33.865 14.5598C33.1094 14.998 31.2813 15.3631 30.1357 15.5578C29.0877 15.7282 26.8209 15.4605 25.529 16.4342C24.2372 17.4079 22.5066 18.3572 20.9711 20.0125C19.4355 21.6678 16.4618 26.0494 16.4618 26.0494C16.4618 26.0494 12.952 32.1837 14.3169 34.7154Z" fill="#FFF7C5"/>
<path d="M34.1331 14.3408C34.1331 14.3408 33.085 16.3856 28.8926 16.3369C26.8939 16.3126 23.6034 19.1363 23.6034 19.1363C23.6034 19.1363 27.0889 16.7994 28.0883 17.3593C28.0883 17.3593 28.722 17.8461 25.5534 21.6436C25.5534 21.6436 27.552 20.6455 29.6726 18.2113C31.7931 15.777 29.9163 19.3554 29.0145 20.6455C28.1127 21.9113 24.1884 27.7779 15.7793 35.0562C15.7793 35.0562 16.9249 34.9102 19.3623 33.3766C21.2879 32.1595 19.8498 34.5451 14.4631 36.176C14.4631 36.176 19.0455 36.6142 21.556 35.0076C24.0665 33.401 26.114 31.9161 28.527 28.6055C30.9401 25.2949 31.7931 24.0048 32.6219 22.3008C33.4993 20.5725 33.4993 19.8179 33.2069 18.8685C32.9144 17.9192 33.4506 15.2902 34.1331 14.3408Z" fill="#FFA300"/>
<path d="M20.8491 20.3048C20.8491 20.3048 25.6752 16.8968 26.9914 16.5561C28.3076 16.2153 28.8682 16.2883 30.1113 16.1909C31.3544 16.0935 33.1093 15.4606 33.9137 14.7791L34.1574 14.3652C34.1574 14.3652 32.4512 15.3876 30.7206 15.5824C28.9901 15.7771 28.6488 15.3876 27.4058 15.7771C26.1627 16.1666 22.0191 18.3331 20.8491 20.3048Z" fill="white"/>
<path d="M15.5113 36.1274C15.5113 36.1274 17.9487 36.2491 20.2886 35.1293C22.6041 34.0096 23.4572 33.1819 26.0896 30.4799C28.722 27.7779 30.477 25.295 31.2326 23.8831C31.9882 22.4469 32.7194 20.9864 32.6707 19.8909C32.6219 18.7955 32.9388 16.7264 33.4994 15.8501C33.4994 15.8501 33.1338 18.4304 33.2556 19.2337C33.3775 20.037 33.2313 20.4508 33.085 20.962C32.9631 21.4732 31.0376 25.4897 29.5508 27.3641C28.0639 29.2384 26.0653 32.0865 23.7741 33.7905C21.5317 35.4214 19.8499 35.7622 18.9236 35.9813C17.9974 36.2004 16.0475 36.6629 15.365 36.3708C14.6825 36.0787 15.5113 36.1274 15.5113 36.1274Z" fill="#FFAD1D"/>
<path d="M19.4599 31.2591C19.4599 31.2591 20.6055 30.4071 24.3104 26.4149C28.0152 22.4228 27.7471 22.3011 27.7471 22.3011C27.7471 22.3011 28.7952 20.4023 27.1621 22.3254C25.5291 24.2485 23.896 26.1472 21.483 28.7275C19.1918 31.1617 19.3137 31.04 19.4599 31.2591Z" fill="#FFF7C5"/>
<path d="M24.8466 25.027C24.8466 25.027 25.651 23.8586 26.3091 23.3231C26.9428 22.8119 27.0891 22.9579 26.8941 23.3231C26.6991 23.7125 25.6022 25.2705 24.9685 25.4652C24.3348 25.6599 24.8466 25.027 24.8466 25.027Z" fill="white"/>
<path d="M16.218 34.7157C16.218 34.7157 21.2635 30.7965 23.4815 28.6057C26.0164 26.0985 27.5032 24.2728 28.4538 22.4958C29.1607 21.1813 29.575 20.0615 29.575 20.0615C29.575 20.0615 26.2602 24.5405 24.7246 26.1958C23.189 27.8511 18.1679 33.3525 16.218 34.7157Z" fill="#BC6909"/>
<path d="M30.745 23.7368C30.745 23.7368 27.0401 29.0435 23.9202 31.7455C20.8004 34.4475 16.8517 36.2732 14.8774 36.1271C14.8774 36.1271 19.801 36.6626 23.3596 34.0093C26.9183 31.356 30.8669 25.9276 31.8418 23.1769C32.8168 20.4262 32.4756 19.915 32.4756 19.915C32.4756 19.915 31.4762 22.6901 30.745 23.7368Z" fill="#BC6909"/>
<path d="M14.4874 36.0055C14.4143 35.8837 15.6574 32.9383 16.9736 31.0639C18.2654 29.1896 21.0441 26.0737 21.0441 26.0737C21.0441 26.0737 17.9973 30.2363 17.1442 31.6482C16.5836 32.5975 14.8774 36.1272 14.8774 36.1272C14.8774 36.1272 14.6093 36.2489 14.4874 36.0055Z" fill="#FFA300"/>
<path d="M14.4875 36.2003C14.4875 36.2003 12.4888 31.624 17.9973 23.591C23.5059 15.5579 28.6976 15.5093 28.6976 15.5093C28.6976 15.5093 31.9637 15.9231 34.133 14.3408C34.133 14.3408 32.9143 17.2619 33.2556 19.2093C33.8893 22.8363 27.2839 30.4555 24.4077 33.1575C22.1409 35.2997 17.8023 36.8332 14.4875 36.2003Z" stroke="#8C3F00" stroke-width="0.255319" stroke-miterlimit="10"/>
<path d="M31.7444 16.9209C31.7444 16.9209 32.2075 16.2637 32.7925 15.7038C33.4018 15.1196 33.9137 14.7788 33.9137 14.7788C33.9137 14.7788 32.6219 16.069 32.4512 16.3611C32.2806 16.6532 31.915 16.9209 31.7444 16.9209Z" fill="#FFD05C"/>
<path d="M29.5996 20.061C29.5996 20.061 30.6721 17.7729 31.4764 16.8722C32.2808 15.9715 33.9138 14.7544 33.9138 14.7544C33.9138 14.7544 31.842 16.0445 29.5996 20.061Z" fill="#BC6909"/>
</g>
<path d="M-4.1001 28.3408L-12 19.3883L23.5707 -12.0002L31.4706 -3.04763L-4.1001 28.3408Z" fill="#EA2828"/>
<path d="M7.37156 14.3101C7.17963 14.1108 6.96251 14.0261 6.72022 14.0561C6.47567 14.0837 6.11405 14.2151 5.63537 14.4501C5.15444 14.6827 4.75196 14.8444 4.42795 14.935C3.54388 15.1808 2.84557 15.0375 2.333 14.5053C2.06655 14.2286 1.90684 13.9079 1.85385 13.5431C1.80095 13.1738 1.86117 12.7882 2.0345 12.3862C2.21017 11.9821 2.47972 11.605 2.84316 11.255C3.20893 10.9027 3.5992 10.6557 4.01397 10.5139C4.42647 10.3697 4.82756 10.3427 5.21723 10.4329C5.60925 10.5209 5.95316 10.7185 6.24896 11.0256L5.19383 12.0417C4.96803 11.8072 4.71918 11.6967 4.44727 11.71C4.1731 11.7209 3.90237 11.8551 3.63507 12.1125C3.37715 12.3609 3.22974 12.609 3.19284 12.857C3.15368 13.1026 3.2199 13.3145 3.39151 13.4927C3.55183 13.6592 3.76942 13.7185 4.04428 13.6707C4.32149 13.6207 4.67046 13.488 5.09122 13.2726C5.86534 12.8751 6.51827 12.6779 7.05002 12.681C7.58176 12.6841 8.03957 12.885 8.42343 13.2836C8.85019 13.7267 9.01786 14.2364 8.92643 14.8125C8.83274 15.3863 8.50219 15.9464 7.93476 16.4928C7.54085 16.8722 7.11324 17.1461 6.65192 17.3147C6.18836 17.481 5.75018 17.5211 5.33741 17.435C4.92698 17.3467 4.56258 17.1372 4.2442 16.8066L5.30284 15.7871C5.84703 16.3522 6.45676 16.3096 7.13204 15.6593C7.38292 15.4177 7.53016 15.1787 7.57375 14.9424C7.61508 14.7038 7.54768 14.493 7.37156 14.3101ZM12.5799 11.8839C12.445 11.8376 12.3015 11.7566 12.1494 11.641C12.1674 12.1524 11.9794 12.5978 11.5855 12.9771C11.2127 13.3361 10.7993 13.5263 10.3454 13.5477C9.8938 13.5668 9.50994 13.4123 9.19382 13.084C8.80544 12.6807 8.65627 12.2278 8.74631 11.7253C8.8387 11.2206 9.16631 10.695 9.72913 10.1484L10.1969 9.69796L9.98691 9.4799C9.81755 9.30404 9.63635 9.20739 9.4433 9.18994C9.25259 9.17023 9.05992 9.25409 8.86531 9.4415C8.69415 9.60634 8.59884 9.7772 8.57939 9.95411C8.56229 10.1288 8.62261 10.2876 8.76035 10.4306L7.74391 11.4095C7.53165 11.1891 7.4032 10.9196 7.35856 10.601C7.31391 10.2825 7.36505 9.9508 7.51198 9.60594C7.65665 9.25873 7.88374 8.9361 8.19325 8.63804C8.66219 8.18643 9.14786 7.94695 9.65025 7.91958C10.1527 7.8876 10.6095 8.08499 11.0204 8.51173L12.6089 10.1612C12.959 10.5201 13.2725 10.7447 13.5493 10.8351L13.6069 10.8949L12.5799 11.8839ZM11.0585 11.9864C11.2086 11.8419 11.3153 11.6759 11.3787 11.4883C11.4399 11.2984 11.4467 11.1178 11.3993 10.9465L10.7693 10.2923L10.3895 10.6581C9.88066 11.1481 9.77919 11.5848 10.0851 11.9681L10.1391 12.0313C10.2611 12.1579 10.4061 12.2193 10.5742 12.2156C10.7424 12.2119 10.9038 12.1355 11.0585 11.9864ZM15.3092 9.25556L14.2892 10.2378L9.08676 4.83554L10.1067 3.8533L15.3092 9.25556ZM17.969 6.82966C17.411 7.36707 16.7913 7.63396 16.1099 7.63033C15.4309 7.62444 14.817 7.33662 14.2683 6.76685L14.1735 6.66837C13.8054 6.28618 13.5507 5.87389 13.4094 5.43151C13.2658 4.98679 13.251 4.5537 13.3648 4.13224C13.4787 3.70618 13.7092 3.32606 14.0562 2.99187C14.5768 2.49059 15.144 2.2607 15.7579 2.30219C16.3741 2.34143 16.9724 2.66234 17.5527 3.26494L17.9524 3.67995L15.5291 6.01361C15.8013 6.23054 16.0917 6.33501 16.4003 6.32701C16.7113 6.31675 16.9934 6.18969 17.2467 5.94583C17.6382 5.56874 17.8076 5.13221 17.7548 4.63624L18.7928 4.7145C18.8481 5.07699 18.8043 5.44452 18.6615 5.81708C18.5164 6.1873 18.2856 6.52483 17.969 6.82966ZM14.8453 3.81826C14.6436 4.01245 14.545 4.2385 14.5493 4.49643C14.556 4.7521 14.6637 5.02348 14.8724 5.31059L16.2863 3.949L16.2084 3.86811C15.9869 3.64753 15.7589 3.53273 15.5242 3.5237C15.2873 3.51233 15.061 3.61052 14.8453 3.81826Z" fill="white"/>
</g>
<defs>
<linearGradient id="paint0_linear" x1="40.9091" y1="8.52273" x2="13.6364" y2="43.1818" gradientUnits="userSpaceOnUse">
<stop stop-color="#FFD234"/>
<stop offset="1" stop-color="#FFE79F"/>
</linearGradient>
<clipPath id="clip0">
<rect width="50" height="50" rx="16" fill="white"/>
</clipPath>
<clipPath id="clip1">
<rect width="20.4255" height="22.4681" fill="white" transform="translate(14 14)"/>
</clipPath>
</defs>
</svg>
