<svg width="50" height="50" viewBox="0 0 50 50" fill="none" xmlns="http://www.w3.org/2000/svg">
<rect width="50" height="50" rx="16" fill="url(#paint0_linear_11143_3230)"/>
<path d="M13 13C12.2044 13 11.4413 13.3161 10.8787 13.8787C10.3161 14.4413 10 15.2044 10 16V22C10.7956 22 11.5587 22.3161 12.1213 22.8787C12.6839 23.4413 13 24.2044 13 25C13 25.7956 12.6839 26.5587 12.1213 27.1213C11.5587 27.6839 10.7956 28 10 28V34C10 34.7956 10.3161 35.5587 10.8787 36.1213C11.4413 36.6839 12.2044 37 13 37H37C37.7956 37 38.5587 36.6839 39.1213 36.1213C39.6839 35.5587 40 34.7956 40 34V28C39.2044 28 38.4413 27.6839 37.8787 27.1213C37.3161 26.5587 37 25.7956 37 25C37 24.2044 37.3161 23.4413 37.8787 22.8787C38.4413 22.3161 39.2044 22 40 22V16C40 15.2044 39.6839 14.4413 39.1213 13.8787C38.5587 13.3161 37.7956 13 37 13H13ZM30.25 17.5L32.5 19.75L19.75 32.5L17.5 30.25L30.25 17.5ZM20.215 17.56C21.685 17.56 22.87 18.745 22.87 20.215C22.87 20.9192 22.5903 21.5945 22.0924 22.0924C21.5945 22.5903 20.9192 22.87 20.215 22.87C18.745 22.87 17.56 21.685 17.56 20.215C17.56 19.5109 17.8397 18.8355 18.3376 18.3376C18.8355 17.8397 19.5109 17.56 20.215 17.56ZM29.785 27.13C31.255 27.13 32.44 28.315 32.44 29.785C32.44 30.4891 32.1603 31.1645 31.6624 31.6624C31.1645 32.1603 30.4891 32.44 29.785 32.44C28.315 32.44 27.13 31.255 27.13 29.785C27.13 29.0808 27.4097 28.4055 27.9076 27.9076C28.4055 27.4097 29.0808 27.13 29.785 27.13Z" fill="white"/>
<defs>
<linearGradient id="paint0_linear_11143_3230" x1="50" y1="1.49012e-06" x2="-1.49012e-06" y2="50" gradientUnits="userSpaceOnUse">
<stop stop-color="#0D09FF"/>
<stop offset="1" stop-color="#0D09FF" stop-opacity="0.44"/>
</linearGradient>
</defs>
</svg>
